<svg xmlns="http://www.w3.org/2000/svg" viewBox="0 0 800 600" role="img" aria-label="Presença digital em saúde com IA">
  <defs>
    <linearGradient id="bg" x1="0%" y1="0%" x2="100%" y2="100%">
      <stop offset="0%" stop-color="#F1F7F5"/>
      <stop offset="100%" stop-color="#ffffff"/>
    </linearGradient>
  </defs>
  <rect width="800" height="600" fill="url(#bg)"/>
  <circle cx="620" cy="180" r="120" fill="#FF8C5A" opacity="0.15"/>
  <circle cx="680" cy="320" r="80" fill="#00897B" opacity="0.12"/>
  <rect x="80" y="120" width="360" height="360" rx="24" fill="#ffffff" stroke="#dde8e5" stroke-width="2"/>
  <rect x="110" y="160" width="200" height="12" rx="6" fill="#00897B"/>
  <rect x="110" y="190" width="280" height="8" rx="4" fill="#dde8e5"/>
  <rect x="110" y="210" width="240" height="8" rx="4" fill="#dde8e5"/>
  <rect x="110" y="260" width="120" height="36" rx="18" fill="#FF8C5A"/>
  <rect x="110" y="320" width="300" height="8" rx="4" fill="#dde8e5"/>
  <rect x="110" y="340" width="260" height="8" rx="4" fill="#dde8e5"/>
  <rect x="110" y="360" width="220" height="8" rx="4" fill="#dde8e5"/>
  <path d="M480 380 L560 300 L640 340 L720 220" fill="none" stroke="#00897B" stroke-width="4" stroke-linecap="round" stroke-linejoin="round" opacity="0.5"/>
  <text x="110" y="450" font-family="system-ui,sans-serif" font-size="14" fill="#5a6b66">SEO · GEO · Compliance CFM</text>
</svg>
